<svg width="119" height="126" viewBox="0 0 119 126" fill="none" xmlns="http://www.w3.org/2000/svg">
<path d="M117.08 69.8438C118.651 80.3223 119.741 93.2345 110.011 100.473C99.7173 108.132 75.0143 110.146 58.9589 110.146C42.9035 110.146 18.9859 108.132 8.69222 100.473C-1.03784 93.2345 0.0525868 81.1284 1.62347 69.8438C5.21405 44.0504 27.7272 29.5417 58.9589 29.5417C90.1906 29.5417 113.455 45.6625 117.08 69.8438Z" fill="#5B4028"/>
<mask id="mask0_34_546" style="mask-type:alpha" maskUnits="userSpaceOnUse" x="0" y="29" width="119" height="82">
<path d="M117.08 69.8438C118.651 80.3223 119.741 93.2345 110.011 100.473C99.7173 108.132 75.0143 110.146 58.9589 110.146C42.9035 110.146 18.9859 108.132 8.69222 100.473C-1.03784 93.2345 0.0525868 81.1284 1.62347 69.8438C5.21405 44.0504 27.7272 29.5417 58.9589 29.5417C90.1906 29.5417 113.455 45.6625 117.08 69.8438Z" fill="#5B4028"/>
</mask>
<g mask="url(#mask0_34_546)">
<path d="M114.287 74.68C115.778 85.1585 116.813 98.0707 107.579 105.31C97.8095 112.968 74.3649 114.982 59.1274 114.982C43.8899 114.982 21.1907 112.968 11.4214 105.31C2.187 98.0707 3.22188 85.9646 4.71273 74.68C8.1204 48.8867 29.4867 34.3779 59.1274 34.3779C88.7681 34.3779 110.847 50.4988 114.287 74.68Z" fill="#E8E896"/>
<ellipse cx="13.4692" cy="17.4701" rx="13.4692" ry="17.4701" transform="matrix(0.810953 -0.585112 0.565161 0.824981 -5.68958 82.3815)" fill="#DF6653"/>
<ellipse cx="13.4692" cy="17.4701" rx="13.4692" ry="17.4701" transform="matrix(-0.810953 -0.585112 -0.565161 0.824981 125.44 82.3815)" fill="#DF6653"/>
</g>
<path d="M11.9454 69.3898C11.3412 54.1814 20.2527 44.803 24.7839 42.0148C44.4193 34.4106 56.5027 51.9002 45.9297 69.3898C35.3568 86.8793 12.7006 88.4002 11.9454 69.3898Z" fill="#BEB394"/>
<path d="M14.9906 67.6234C14.4854 54.6826 21.9371 46.7024 25.726 44.33C42.1449 37.8596 52.2488 52.7415 43.4079 67.6234C34.567 82.5053 15.6221 83.7994 14.9906 67.6234Z" fill="white"/>
<ellipse cx="5.73819" cy="7.69663" rx="5.73819" ry="7.69663" transform="matrix(0.96569 0.259696 -0.256385 0.966575 27.946 49.3125)" fill="#3F260F"/>
<path d="M105.705 69.3898C106.309 54.1814 97.3977 44.803 92.8665 42.0148C73.2311 34.4106 61.1477 51.9002 71.7207 69.3898C82.2936 86.8793 104.95 88.4002 105.705 69.3898Z" fill="#BEB394"/>
<path d="M102.66 67.6234C103.165 54.6826 95.7133 46.7024 91.9244 44.33C75.5055 37.8596 65.4016 52.7415 74.2425 67.6234C83.0834 82.5053 102.028 83.7994 102.66 67.6234Z" fill="white"/>
<ellipse cx="5.73819" cy="7.69663" rx="5.73819" ry="7.69663" transform="matrix(-0.96569 0.259696 0.256385 0.966575 88.1938 49.3125)" fill="#3F260F"/>
<path fill-rule="evenodd" clip-rule="evenodd" d="M58.5396 28.4961C47.913 28.4958 35.1285 28.4597 30.5909 24.3084C25.1874 19.3652 20.6729 11.7455 21.4358 0.857622C20.9272 0.578446 19.4523 0.355105 17.6212 1.69515C15.3325 3.37021 14.5696 8.39534 14.5696 9.23287C14.5696 9.49604 14.193 9.59382 13.6527 9.73408C12.4737 10.0402 10.5153 10.5487 9.99206 13.4205C9.38172 16.7706 9.73775 18.1665 9.99206 18.4457C8.72052 17.8873 5.87229 17.4407 4.65162 20.1208C3.12578 23.4709 7.70331 30.1711 17.6212 41.8965C24.4875 41.8965 37.1519 53.6728 48.138 69.0833H58.2604H58.8189H68.9413C79.9273 53.6728 92.5918 41.8965 99.458 41.8965C109.376 30.1711 113.953 23.4709 112.428 20.1208C111.207 17.4407 108.359 17.8873 107.087 18.4457C107.342 18.1665 107.698 16.7706 107.087 13.4205C106.564 10.5487 104.606 10.0402 103.427 9.73408C102.886 9.59382 102.51 9.49604 102.51 9.23287C102.51 8.39534 101.747 3.37021 99.458 1.69515C97.627 0.355105 96.152 0.578446 95.6434 0.857622C96.4063 11.7455 91.8919 19.3652 86.4884 24.3084C81.9507 28.4597 69.1663 28.4958 58.5396 28.4961Z" fill="url(#paint0_linear_34_546)"/>
<ellipse cx="51.4193" cy="55.0848" rx="3.02084" ry="3.11079" fill="#B68C5D"/>
<ellipse cx="3.62582" cy="3.78983" rx="3.62582" ry="3.78983" transform="matrix(-0.339059 0.940765 -0.934102 -0.357007 47.3645 45.3476)" fill="#B68C5D"/>
<ellipse cx="3.84711" cy="4.11286" rx="3.84711" ry="4.11286" transform="matrix(-0.432295 0.901732 -0.891418 -0.453183 37.7224 37.9195)" fill="#B68C5D"/>
<ellipse cx="4.64992" cy="5.01708" rx="4.64992" ry="5.01708" transform="matrix(-0.582625 0.812741 -0.796087 -0.605182 28.3433 29.709)" fill="#B68C5D"/>
<ellipse cx="3.02084" cy="3.11079" rx="3.02084" ry="3.11079" transform="matrix(-1 0 0 1 71.0548 52.3143)" fill="#B68C5D"/>
<ellipse cx="3.62582" cy="3.78983" rx="3.62582" ry="3.78983" transform="matrix(0.339059 0.940765 0.934102 -0.357008 72.0889 45.6879)" fill="#B68C5D"/>
<ellipse cx="3.84711" cy="4.11286" rx="3.84711" ry="4.11286" transform="matrix(0.432296 0.901732 0.891418 -0.453183 81.7308 38.2598)" fill="#B68C5D"/>
<ellipse cx="4.64992" cy="5.01708" rx="4.64992" ry="5.01708" transform="matrix(0.582625 0.812741 0.796087 -0.605182 91.11 30.0493)" fill="#B68C5D"/>
<path d="M79.8849 84.2917C79.8849 95.2108 70.7557 102.542 59.4943 102.542C48.2328 102.542 39.1036 95.2108 39.1036 84.2917C39.1036 73.3725 48.2328 63 59.4943 63C70.7557 63 79.8849 73.3725 79.8849 84.2917Z" fill="url(#paint1_linear_34_546)"/>
<path d="M77.3446 82.5567C63.0934 88.0371 49.3478 85.6468 41.6722 82.7985C40.8308 82.4863 40.0667 83.6076 40.6852 84.2813C55.5478 100.47 70.6231 92.1218 78.2423 83.8678C78.8423 83.2177 78.1551 82.245 77.3446 82.5567Z" fill="#583A15"/>
<mask id="mask1_34_546" style="mask-type:alpha" maskUnits="userSpaceOnUse" x="40" y="81" width="40" height="13">
<path d="M79.211 81.808C63.6373 88.5311 48.3535 85.5211 40.8182 82.4612C40.3205 82.2591 39.8495 82.8814 40.2031 83.2858C56.2898 101.684 72.4798 91.3967 79.8022 82.5467C80.1333 82.1465 79.6878 81.6021 79.211 81.808Z" fill="#583A15"/>
</mask>
<g mask="url(#mask1_34_546)">
<ellipse cx="10.7802" cy="8.06008" rx="10.7802" ry="8.06008" transform="matrix(0.999921 -0.0125497 0.0123784 0.999923 48.5916 74.4475)" fill="#9A4F01"/>
</g>
<ellipse cx="1.11601" cy="2.92614" rx="1.11601" ry="2.92614" transform="matrix(0.662514 -0.749049 0.696071 0.717973 63.7598 67.7135)" fill="#DAAB07"/>
<ellipse cx="1.11601" cy="2.92614" rx="1.11601" ry="2.92614" transform="matrix(-0.662515 -0.749049 -0.696072 0.717972 55.229 67.7135)" fill="#DAAB07"/>
<path d="M38.7222 103.015C41.4415 100.853 51.1859 106.619 55.7182 109.771V118.555C52.9988 121.933 49.5996 124.635 41.4415 125.311C33.2834 125.987 36.6826 118.555 37.3625 113.825C37.7925 110.834 35.3229 105.718 38.7222 103.015Z" fill="#1F6543"/>
<path d="M50.8364 111.195C48.0517 109.348 42.3528 106.252 41.8341 108.641C41.1858 111.627 55.0133 113.966 50.8364 111.195Z" fill="#308C60"/>
<path d="M50.894 114.944C47.6228 115.595 41.4042 117.415 42.6994 119.483C44.3183 122.069 55.8008 113.967 50.894 114.944Z" fill="#308C60"/>
<path d="M80.2663 103.015C77.5469 100.853 67.8025 106.619 63.2702 109.771V118.555C65.9896 121.933 69.3888 124.635 77.5469 125.311C85.705 125.987 82.3058 118.555 81.6259 113.825C81.196 110.834 83.6655 105.718 80.2663 103.015Z" fill="#1F6543"/>
<path d="M68.1522 111.195C70.9368 109.348 76.6357 106.252 77.1544 108.641C77.8027 111.627 63.9752 113.966 68.1522 111.195Z" fill="#308C60"/>
<path d="M68.0944 114.944C71.3656 115.595 77.5842 117.415 76.289 119.483C74.6701 122.069 63.1876 113.967 68.0944 114.944Z" fill="#308C60"/>
<rect x="54.2078" y="108.625" width="10.5729" height="12.1667" rx="2" fill="#277650"/>
<defs>
<linearGradient id="paint0_linear_34_546" x1="58.5396" y1="0.645844" x2="58.5396" y2="69.0833" gradientUnits="userSpaceOnUse">
<stop stop-color="#5B4028"/>
<stop offset="1" stop-color="#412C19"/>
</linearGradient>
<linearGradient id="paint1_linear_34_546" x1="59.4943" y1="63" x2="59.4943" y2="102.542" gradientUnits="userSpaceOnUse">
<stop stop-color="#F9E045"/>
<stop offset="1" stop-color="#CEB726"/>
</linearGradient>
</defs>
</svg>
